<mxfile host="Electron" modified="2024-04-22T13:16:22.524Z" agent="Mozilla/5.0 (Windows NT 10.0; Win64; x64) AppleWebKit/537.36 (KHTML, like Gecko) draw.io/23.1.5 Chrome/120.0.6099.109 Electron/28.1.0 Safari/537.36" etag="_vSHXegwZcS_8O0oOtVf" version="23.1.5" type="device">
  <diagram name="Page-1" id="Y3-ZoNVP7fB7ggFjIZeu">
    <mxGraphModel dx="2848" dy="2765" grid="1" gridSize="10" guides="1" tooltips="1" connect="1" arrows="1" fold="1" page="1" pageScale="1" pageWidth="850" pageHeight="1100" math="0" shadow="0">
      <root>
        <mxCell id="0" />
        <mxCell id="1" parent="0" />
        <mxCell id="UK-n1BO-FfAP6Dtml6JQ-47" value="System Handler" style="shape=umlLifeline;perimeter=lifelinePerimeter;whiteSpace=wrap;container=1;dropTarget=0;collapsible=0;recursiveResize=0;outlineConnect=0;portConstraint=eastwest;newEdgeStyle={&quot;edgeStyle&quot;:&quot;elbowEdgeStyle&quot;,&quot;elbow&quot;:&quot;vertical&quot;,&quot;curved&quot;:0,&quot;rounded&quot;:0};participant=umlActor;verticalAlign=bottom;labelPosition=center;verticalLabelPosition=top;align=center;size=65;" parent="1" vertex="1">
          <mxGeometry x="20" y="20" width="35" height="1760" as="geometry" />
        </mxCell>
        <mxCell id="PT7jLPXANrUlr4Vnk7FU-3" value="" style="html=1;points=[[0,0,0,0,5],[0,1,0,0,-5],[1,0,0,0,5],[1,1,0,0,-5]];perimeter=orthogonalPerimeter;outlineConnect=0;targetShapes=umlLifeline;portConstraint=eastwest;newEdgeStyle={&quot;curved&quot;:0,&quot;rounded&quot;:0};" parent="UK-n1BO-FfAP6Dtml6JQ-47" vertex="1">
          <mxGeometry x="12.5" y="90" width="10" height="1640" as="geometry" />
        </mxCell>
        <mxCell id="UK-n1BO-FfAP6Dtml6JQ-48" value="AlarmConditionHandler" style="shape=umlLifeline;perimeter=lifelinePerimeter;whiteSpace=wrap;container=1;dropTarget=0;collapsible=0;recursiveResize=0;outlineConnect=0;portConstraint=eastwest;newEdgeStyle={&quot;edgeStyle&quot;:&quot;elbowEdgeStyle&quot;,&quot;elbow&quot;:&quot;vertical&quot;,&quot;curved&quot;:0,&quot;rounded&quot;:0};size=65;" parent="1" vertex="1">
          <mxGeometry x="220" y="20" width="187" height="1760" as="geometry" />
        </mxCell>
        <mxCell id="UK-n1BO-FfAP6Dtml6JQ-49" value="AlarmHistoryHandler" style="shape=umlLifeline;perimeter=lifelinePerimeter;whiteSpace=wrap;container=1;dropTarget=0;collapsible=0;recursiveResize=0;outlineConnect=0;portConstraint=eastwest;newEdgeStyle={&quot;edgeStyle&quot;:&quot;elbowEdgeStyle&quot;,&quot;elbow&quot;:&quot;vertical&quot;,&quot;curved&quot;:0,&quot;rounded&quot;:0};size=65;" parent="1" vertex="1">
          <mxGeometry x="457" y="20" width="168" height="1760" as="geometry" />
        </mxCell>
        <mxCell id="UK-n1BO-FfAP6Dtml6JQ-50" value="AppScheduler" style="shape=umlLifeline;perimeter=lifelinePerimeter;whiteSpace=wrap;container=1;dropTarget=0;collapsible=0;recursiveResize=0;outlineConnect=0;portConstraint=eastwest;newEdgeStyle={&quot;edgeStyle&quot;:&quot;elbowEdgeStyle&quot;,&quot;elbow&quot;:&quot;vertical&quot;,&quot;curved&quot;:0,&quot;rounded&quot;:0};size=65;" parent="1" vertex="1">
          <mxGeometry x="678" y="20" width="150" height="1760" as="geometry" />
        </mxCell>
        <mxCell id="UK-n1BO-FfAP6Dtml6JQ-51" value="AlarmPersistenceService" style="shape=umlLifeline;perimeter=lifelinePerimeter;whiteSpace=wrap;container=1;dropTarget=0;collapsible=0;recursiveResize=0;outlineConnect=0;portConstraint=eastwest;newEdgeStyle={&quot;edgeStyle&quot;:&quot;elbowEdgeStyle&quot;,&quot;elbow&quot;:&quot;vertical&quot;,&quot;curved&quot;:0,&quot;rounded&quot;:0};size=65;" parent="1" vertex="1">
          <mxGeometry x="1069" y="20" width="190" height="1760" as="geometry" />
        </mxCell>
        <mxCell id="UK-n1BO-FfAP6Dtml6JQ-52" value="" style="points=[];perimeter=orthogonalPerimeter;outlineConnect=0;targetShapes=umlLifeline;portConstraint=eastwest;newEdgeStyle={&quot;edgeStyle&quot;:&quot;elbowEdgeStyle&quot;,&quot;elbow&quot;:&quot;vertical&quot;,&quot;curved&quot;:0,&quot;rounded&quot;:0}" parent="UK-n1BO-FfAP6Dtml6JQ-51" vertex="1">
          <mxGeometry x="90" y="275" width="10" height="45" as="geometry" />
        </mxCell>
        <mxCell id="UK-n1BO-FfAP6Dtml6JQ-53" value="" style="points=[];perimeter=orthogonalPerimeter;outlineConnect=0;targetShapes=umlLifeline;portConstraint=eastwest;newEdgeStyle={&quot;edgeStyle&quot;:&quot;elbowEdgeStyle&quot;,&quot;elbow&quot;:&quot;vertical&quot;,&quot;curved&quot;:0,&quot;rounded&quot;:0}" parent="UK-n1BO-FfAP6Dtml6JQ-51" vertex="1">
          <mxGeometry x="90" y="1379" width="10" height="50" as="geometry" />
        </mxCell>
        <mxCell id="UK-n1BO-FfAP6Dtml6JQ-101" value="" style="points=[];perimeter=orthogonalPerimeter;outlineConnect=0;targetShapes=umlLifeline;portConstraint=eastwest;newEdgeStyle={&quot;edgeStyle&quot;:&quot;elbowEdgeStyle&quot;,&quot;elbow&quot;:&quot;vertical&quot;,&quot;curved&quot;:0,&quot;rounded&quot;:0}" parent="UK-n1BO-FfAP6Dtml6JQ-51" vertex="1">
          <mxGeometry x="90" y="765" width="10" height="50" as="geometry" />
        </mxCell>
        <mxCell id="UK-n1BO-FfAP6Dtml6JQ-55" value="AlarmStore" style="shape=umlLifeline;perimeter=lifelinePerimeter;whiteSpace=wrap;container=1;dropTarget=0;collapsible=0;recursiveResize=0;outlineConnect=0;portConstraint=eastwest;newEdgeStyle={&quot;edgeStyle&quot;:&quot;elbowEdgeStyle&quot;,&quot;elbow&quot;:&quot;vertical&quot;,&quot;curved&quot;:0,&quot;rounded&quot;:0};size=65;" parent="1" vertex="1">
          <mxGeometry x="1309" y="20" width="150" height="1760" as="geometry" />
        </mxCell>
        <mxCell id="UK-n1BO-FfAP6Dtml6JQ-56" value="" style="points=[];perimeter=orthogonalPerimeter;outlineConnect=0;targetShapes=umlLifeline;portConstraint=eastwest;newEdgeStyle={&quot;edgeStyle&quot;:&quot;elbowEdgeStyle&quot;,&quot;elbow&quot;:&quot;vertical&quot;,&quot;curved&quot;:0,&quot;rounded&quot;:0}" parent="UK-n1BO-FfAP6Dtml6JQ-55" vertex="1">
          <mxGeometry x="70" y="425" width="10" height="55" as="geometry" />
        </mxCell>
        <mxCell id="6E0PhpQqolpPUcURHU3V-2" value="" style="points=[];perimeter=orthogonalPerimeter;outlineConnect=0;targetShapes=umlLifeline;portConstraint=eastwest;newEdgeStyle={&quot;edgeStyle&quot;:&quot;elbowEdgeStyle&quot;,&quot;elbow&quot;:&quot;vertical&quot;,&quot;curved&quot;:0,&quot;rounded&quot;:0}" parent="UK-n1BO-FfAP6Dtml6JQ-55" vertex="1">
          <mxGeometry x="70" y="539" width="10" height="51" as="geometry" />
        </mxCell>
        <mxCell id="UK-n1BO-FfAP6Dtml6JQ-57" value="AlarmService" style="shape=umlLifeline;perimeter=lifelinePerimeter;whiteSpace=wrap;container=1;dropTarget=0;collapsible=0;recursiveResize=0;outlineConnect=0;portConstraint=eastwest;newEdgeStyle={&quot;edgeStyle&quot;:&quot;elbowEdgeStyle&quot;,&quot;elbow&quot;:&quot;vertical&quot;,&quot;curved&quot;:0,&quot;rounded&quot;:0};size=65;" parent="1" vertex="1">
          <mxGeometry x="1509" y="20" width="150" height="1760" as="geometry" />
        </mxCell>
        <mxCell id="UK-n1BO-FfAP6Dtml6JQ-58" value="WebSocketService" style="shape=umlLifeline;perimeter=lifelinePerimeter;whiteSpace=wrap;container=1;dropTarget=0;collapsible=0;recursiveResize=0;outlineConnect=0;portConstraint=eastwest;newEdgeStyle={&quot;edgeStyle&quot;:&quot;elbowEdgeStyle&quot;,&quot;elbow&quot;:&quot;vertical&quot;,&quot;curved&quot;:0,&quot;rounded&quot;:0};size=65;" parent="1" vertex="1">
          <mxGeometry x="1721" y="20" width="150" height="1760" as="geometry" />
        </mxCell>
        <mxCell id="UK-n1BO-FfAP6Dtml6JQ-110" value="" style="points=[];perimeter=orthogonalPerimeter;outlineConnect=0;targetShapes=umlLifeline;portConstraint=eastwest;newEdgeStyle={&quot;edgeStyle&quot;:&quot;elbowEdgeStyle&quot;,&quot;elbow&quot;:&quot;vertical&quot;,&quot;curved&quot;:0,&quot;rounded&quot;:0}" parent="UK-n1BO-FfAP6Dtml6JQ-58" vertex="1">
          <mxGeometry x="70" y="1160" width="10" height="40" as="geometry" />
        </mxCell>
        <mxCell id="UK-n1BO-FfAP6Dtml6JQ-59" value="NotificationService" style="shape=umlLifeline;perimeter=lifelinePerimeter;whiteSpace=wrap;container=1;dropTarget=0;collapsible=0;recursiveResize=0;outlineConnect=0;portConstraint=eastwest;newEdgeStyle={&quot;edgeStyle&quot;:&quot;elbowEdgeStyle&quot;,&quot;elbow&quot;:&quot;vertical&quot;,&quot;curved&quot;:0,&quot;rounded&quot;:0};size=65;" parent="1" vertex="1">
          <mxGeometry x="1921" y="20" width="153" height="1760" as="geometry" />
        </mxCell>
        <mxCell id="UK-n1BO-FfAP6Dtml6JQ-68" value="par" style="shape=umlFrame;pointerEvents=0;dropTarget=0;strokeColor=#000000;height=25;width=65;strokeWidth=1;verticalAlign=top;" parent="1" vertex="1">
          <mxGeometry x="85" y="165" width="1945" height="1525" as="geometry" />
        </mxCell>
        <mxCell id="UK-n1BO-FfAP6Dtml6JQ-69" value="[Triggering Alarm and Resolving Alarm]" style="text;strokeColor=none;fillColor=none;align=center;verticalAlign=middle;whiteSpace=wrap;" parent="UK-n1BO-FfAP6Dtml6JQ-68" vertex="1">
          <mxGeometry x="30.186239006725298" width="1914.8137609932746" height="20.622041920216365" as="geometry" />
        </mxCell>
        <mxCell id="UK-n1BO-FfAP6Dtml6JQ-70" value="[Notifying Alarm]" style="shape=line;dashed=1;whiteSpace=wrap;verticalAlign=top;labelPosition=center;verticalLabelPosition=bottom;align=center;strokeColor=#B3B3B3;strokeWidth=2;fontSize=12;" parent="UK-n1BO-FfAP6Dtml6JQ-68" vertex="1">
          <mxGeometry y="1131.3682103190595" width="1945" height="11.342123056119" as="geometry" />
        </mxCell>
        <mxCell id="UK-n1BO-FfAP6Dtml6JQ-72" value="1.1. handle()" style="verticalAlign=bottom;endArrow=block;edgeStyle=elbowEdgeStyle;elbow=vertical;curved=0;rounded=0;" parent="1" source="PT7jLPXANrUlr4Vnk7FU-3" edge="1">
          <mxGeometry relative="1" as="geometry">
            <Array as="points">
              <mxPoint x="214" y="240" />
            </Array>
            <mxPoint x="37.534883720930225" y="240" as="sourcePoint" />
            <mxPoint x="308.5" y="240" as="targetPoint" />
          </mxGeometry>
        </mxCell>
        <mxCell id="UK-n1BO-FfAP6Dtml6JQ-73" value="1.2. getAllConditions()" style="verticalAlign=bottom;endArrow=block;edgeStyle=elbowEdgeStyle;elbow=vertical;curved=0;rounded=0;" parent="1" source="UK-n1BO-FfAP6Dtml6JQ-95" target="UK-n1BO-FfAP6Dtml6JQ-52" edge="1">
          <mxGeometry relative="1" as="geometry">
            <Array as="points">
              <mxPoint x="751" y="295" />
            </Array>
          </mxGeometry>
        </mxCell>
        <mxCell id="UK-n1BO-FfAP6Dtml6JQ-74" value="1.3. return conditions" style="verticalAlign=bottom;endArrow=block;edgeStyle=elbowEdgeStyle;elbow=vertical;curved=0;rounded=0;dashed=1;" parent="1" source="UK-n1BO-FfAP6Dtml6JQ-52" edge="1">
          <mxGeometry relative="1" as="geometry">
            <Array as="points">
              <mxPoint x="749" y="340" />
            </Array>
            <mxPoint x="1159" y="340" as="sourcePoint" />
            <mxPoint x="318.5" y="340" as="targetPoint" />
          </mxGeometry>
        </mxCell>
        <mxCell id="UK-n1BO-FfAP6Dtml6JQ-75" value="1.4. checkHoldingConditions()" style="verticalAlign=bottom;endArrow=block;edgeStyle=elbowEdgeStyle;elbow=vertical;curved=0;rounded=0;" parent="1" source="UK-n1BO-FfAP6Dtml6JQ-95" target="UK-n1BO-FfAP6Dtml6JQ-56" edge="1">
          <mxGeometry x="0.0003" relative="1" as="geometry">
            <Array as="points">
              <mxPoint x="861" y="445" />
            </Array>
            <mxPoint as="offset" />
          </mxGeometry>
        </mxCell>
        <mxCell id="UK-n1BO-FfAP6Dtml6JQ-76" value="1.5. return is in holding conditions" style="verticalAlign=bottom;endArrow=block;edgeStyle=elbowEdgeStyle;elbow=vertical;curved=0;rounded=0;dashed=1;" parent="1" source="UK-n1BO-FfAP6Dtml6JQ-56" target="UK-n1BO-FfAP6Dtml6JQ-95" edge="1">
          <mxGeometry x="0.0003" relative="1" as="geometry">
            <Array as="points">
              <mxPoint x="859" y="497" />
            </Array>
            <mxPoint x="330" y="497" as="targetPoint" />
            <mxPoint as="offset" />
          </mxGeometry>
        </mxCell>
        <mxCell id="UK-n1BO-FfAP6Dtml6JQ-77" value="1.6. process(matchedConditions, plcData)" style="verticalAlign=bottom;endArrow=block;edgeStyle=elbowEdgeStyle;elbow=vertical;curved=0;rounded=0;" parent="1" source="UK-n1BO-FfAP6Dtml6JQ-95" target="6E0PhpQqolpPUcURHU3V-2" edge="1">
          <mxGeometry relative="1" as="geometry">
            <Array as="points">
              <mxPoint x="859" y="559" />
            </Array>
          </mxGeometry>
        </mxCell>
        <mxCell id="UK-n1BO-FfAP6Dtml6JQ-78" value="1.7. return holdingConditions" style="verticalAlign=bottom;endArrow=block;edgeStyle=elbowEdgeStyle;elbow=vertical;curved=0;rounded=0;dashed=1;" parent="1" source="6E0PhpQqolpPUcURHU3V-2" target="UK-n1BO-FfAP6Dtml6JQ-95" edge="1">
          <mxGeometry relative="1" as="geometry">
            <Array as="points">
              <mxPoint x="1370" y="610" />
            </Array>
            <mxPoint x="330" y="610" as="targetPoint" />
          </mxGeometry>
        </mxCell>
        <mxCell id="UK-n1BO-FfAP6Dtml6JQ-79" value="1.8. createHistories(holdingConditions)" style="verticalAlign=bottom;endArrow=block;edgeStyle=elbowEdgeStyle;elbow=vertical;curved=0;rounded=0;" parent="1" edge="1">
          <mxGeometry relative="1" as="geometry">
            <Array as="points">
              <mxPoint x="961" y="660" />
            </Array>
            <mxPoint x="318.5" y="660" as="sourcePoint" />
            <mxPoint x="1579" y="660" as="targetPoint" />
          </mxGeometry>
        </mxCell>
        <mxCell id="UK-n1BO-FfAP6Dtml6JQ-80" value="2.1. scheduleNotification()" style="verticalAlign=bottom;endArrow=block;edgeStyle=elbowEdgeStyle;elbow=vertical;curved=0;rounded=0;" parent="1" source="PT7jLPXANrUlr4Vnk7FU-3" target="UK-n1BO-FfAP6Dtml6JQ-97" edge="1">
          <mxGeometry relative="1" as="geometry">
            <Array as="points">
              <mxPoint x="434" y="1350" />
            </Array>
            <mxPoint x="36.46153846153857" y="1350" as="sourcePoint" />
            <mxPoint x="752.5" y="1350" as="targetPoint" />
          </mxGeometry>
        </mxCell>
        <mxCell id="UK-n1BO-FfAP6Dtml6JQ-81" value="2.2. getAllHistoriesByStatus(AlarmStatus.TRIGGERED)" style="verticalAlign=bottom;endArrow=block;edgeStyle=elbowEdgeStyle;elbow=vertical;curved=0;rounded=0;" parent="1" edge="1">
          <mxGeometry x="0.0017" relative="1" as="geometry">
            <Array as="points">
              <mxPoint x="971" y="1399" />
            </Array>
            <mxPoint x="758" y="1399" as="sourcePoint" />
            <mxPoint x="1159" y="1399" as="targetPoint" />
            <mxPoint as="offset" />
          </mxGeometry>
        </mxCell>
        <mxCell id="UK-n1BO-FfAP6Dtml6JQ-82" value="2.3. return TRIGGERED histories" style="verticalAlign=bottom;endArrow=block;edgeStyle=elbowEdgeStyle;elbow=vertical;curved=0;rounded=0;dashed=1;" parent="1" source="UK-n1BO-FfAP6Dtml6JQ-53" edge="1">
          <mxGeometry relative="1" as="geometry">
            <Array as="points">
              <mxPoint x="969" y="1449" />
            </Array>
            <mxPoint x="1163.5" y="1449" as="sourcePoint" />
            <mxPoint x="758" y="1449" as="targetPoint" />
          </mxGeometry>
        </mxCell>
        <mxCell id="UK-n1BO-FfAP6Dtml6JQ-83" value="2.4. updateStatusHistories(histories, AlarmStatus.SENT)" style="verticalAlign=bottom;endArrow=block;edgeStyle=elbowEdgeStyle;elbow=vertical;curved=0;rounded=0;" parent="1" edge="1">
          <mxGeometry relative="1" as="geometry">
            <Array as="points">
              <mxPoint x="1179" y="1549" />
            </Array>
            <mxPoint x="751.9615384615386" y="1549.0000000000005" as="sourcePoint" />
            <mxPoint x="1579" y="1549" as="targetPoint" />
          </mxGeometry>
        </mxCell>
        <mxCell id="UK-n1BO-FfAP6Dtml6JQ-84" value="2.5. notify(histories)" style="verticalAlign=bottom;endArrow=block;edgeStyle=elbowEdgeStyle;elbow=vertical;curved=0;rounded=0;" parent="1" edge="1">
          <mxGeometry relative="1" as="geometry">
            <Array as="points">
              <mxPoint x="1388" y="1599" />
            </Array>
            <mxPoint x="751.9615384615386" y="1599" as="sourcePoint" />
            <mxPoint x="1992.5" y="1599" as="targetPoint" />
          </mxGeometry>
        </mxCell>
        <mxCell id="UK-n1BO-FfAP6Dtml6JQ-85" value="1.9. handle()" style="verticalAlign=bottom;endArrow=block;edgeStyle=elbowEdgeStyle;elbow=vertical;curved=0;rounded=0;" parent="1" source="PT7jLPXANrUlr4Vnk7FU-3" target="UK-n1BO-FfAP6Dtml6JQ-104" edge="1">
          <mxGeometry relative="1" as="geometry">
            <Array as="points">
              <mxPoint x="328" y="740" />
            </Array>
            <mxPoint x="36.18181818181847" y="740" as="sourcePoint" />
            <mxPoint x="540.5" y="740" as="targetPoint" />
          </mxGeometry>
        </mxCell>
        <mxCell id="UK-n1BO-FfAP6Dtml6JQ-86" value="1.10. getAllHistoriesByStatus(AlarmStatus.SENT)" style="verticalAlign=bottom;endArrow=block;edgeStyle=elbowEdgeStyle;elbow=vertical;curved=0;rounded=0;exitX=1.018;exitY=0.101;exitDx=0;exitDy=0;exitPerimeter=0;" parent="1" edge="1">
          <mxGeometry x="0.0004" relative="1" as="geometry">
            <Array as="points" />
            <mxPoint x="546.1799999999998" y="785.54" as="sourcePoint" />
            <mxPoint x="1159" y="785.7647058823532" as="targetPoint" />
            <mxPoint as="offset" />
          </mxGeometry>
        </mxCell>
        <mxCell id="UK-n1BO-FfAP6Dtml6JQ-87" value="1.11. return SENT histories" style="verticalAlign=bottom;endArrow=block;edgeStyle=elbowEdgeStyle;elbow=horizontal;curved=0;rounded=0;dashed=1;dashPattern=2 3;" parent="1" source="UK-n1BO-FfAP6Dtml6JQ-101" target="UK-n1BO-FfAP6Dtml6JQ-104" edge="1">
          <mxGeometry relative="1" as="geometry">
            <Array as="points">
              <mxPoint x="863" y="835" />
            </Array>
            <mxPoint x="1163.5" y="835.0000000000005" as="sourcePoint" />
            <mxPoint x="539.6818181818185" y="835.0000000000005" as="targetPoint" />
          </mxGeometry>
        </mxCell>
        <mxCell id="UK-n1BO-FfAP6Dtml6JQ-89" value="1.13. updateStatusHistories(solvedHistories, AlarmStatus.RESOLVED)" style="verticalAlign=bottom;endArrow=block;edgeStyle=elbowEdgeStyle;elbow=vertical;curved=0;rounded=0;" parent="1" target="UK-n1BO-FfAP6Dtml6JQ-109" edge="1">
          <mxGeometry relative="1" as="geometry">
            <Array as="points">
              <mxPoint x="1075" y="1070" />
            </Array>
            <mxPoint x="546" y="1070" as="sourcePoint" />
            <mxPoint x="1579" y="1070" as="targetPoint" />
          </mxGeometry>
        </mxCell>
        <mxCell id="UK-n1BO-FfAP6Dtml6JQ-90" value="1.14. fireAlarm(Map.of())" style="verticalAlign=bottom;endArrow=block;edgeStyle=elbowEdgeStyle;elbow=vertical;curved=0;rounded=0;" parent="1" target="UK-n1BO-FfAP6Dtml6JQ-110" edge="1">
          <mxGeometry relative="1" as="geometry">
            <Array as="points">
              <mxPoint x="1184" y="1180" />
            </Array>
            <mxPoint x="539.6818181818185" y="1180" as="sourcePoint" />
            <mxPoint x="1795.5" y="1180" as="targetPoint" />
          </mxGeometry>
        </mxCell>
        <mxCell id="UK-n1BO-FfAP6Dtml6JQ-95" value="" style="html=1;points=[[0,0,0,0,5],[0,1,0,0,-5],[1,0,0,0,5],[1,1,0,0,-5]];perimeter=orthogonalPerimeter;outlineConnect=0;targetShapes=umlLifeline;portConstraint=eastwest;newEdgeStyle={&quot;curved&quot;:0,&quot;rounded&quot;:0};" parent="1" vertex="1">
          <mxGeometry x="308.5" y="240" width="10" height="460" as="geometry" />
        </mxCell>
        <mxCell id="UK-n1BO-FfAP6Dtml6JQ-60" value="loop" style="shape=umlFrame;pointerEvents=0;dropTarget=0;strokeColor=#000000;height=23;width=61;strokeWidth=1;" parent="1" vertex="1">
          <mxGeometry x="299" y="367" width="1101" height="150" as="geometry" />
        </mxCell>
        <mxCell id="UK-n1BO-FfAP6Dtml6JQ-61" value="[for each condition]" style="text;strokeColor=none;fillColor=none;align=center;verticalAlign=middle;whiteSpace=wrap;" parent="UK-n1BO-FfAP6Dtml6JQ-60" vertex="1">
          <mxGeometry x="40" width="1061" height="20" as="geometry" />
        </mxCell>
        <mxCell id="UK-n1BO-FfAP6Dtml6JQ-96" value="" style="points=[];perimeter=orthogonalPerimeter;outlineConnect=0;targetShapes=umlLifeline;portConstraint=eastwest;newEdgeStyle={&quot;edgeStyle&quot;:&quot;elbowEdgeStyle&quot;,&quot;elbow&quot;:&quot;vertical&quot;,&quot;curved&quot;:0,&quot;rounded&quot;:0}" parent="1" vertex="1">
          <mxGeometry x="1579" y="660" width="10" height="40" as="geometry" />
        </mxCell>
        <mxCell id="UK-n1BO-FfAP6Dtml6JQ-97" value="" style="html=1;points=[[0,0,0,0,5],[0,1,0,0,-5],[1,0,0,0,5],[1,1,0,0,-5]];perimeter=orthogonalPerimeter;outlineConnect=0;targetShapes=umlLifeline;portConstraint=eastwest;newEdgeStyle={&quot;curved&quot;:0,&quot;rounded&quot;:0};" parent="1" vertex="1">
          <mxGeometry x="748" y="1349" width="10" height="321" as="geometry" />
        </mxCell>
        <mxCell id="UK-n1BO-FfAP6Dtml6JQ-98" value="" style="points=[];perimeter=orthogonalPerimeter;outlineConnect=0;targetShapes=umlLifeline;portConstraint=eastwest;newEdgeStyle={&quot;edgeStyle&quot;:&quot;elbowEdgeStyle&quot;,&quot;elbow&quot;:&quot;vertical&quot;,&quot;curved&quot;:0,&quot;rounded&quot;:0}" parent="1" vertex="1">
          <mxGeometry x="1579" y="1549" width="10" height="30" as="geometry" />
        </mxCell>
        <mxCell id="UK-n1BO-FfAP6Dtml6JQ-99" value="" style="points=[];perimeter=orthogonalPerimeter;outlineConnect=0;targetShapes=umlLifeline;portConstraint=eastwest;newEdgeStyle={&quot;edgeStyle&quot;:&quot;elbowEdgeStyle&quot;,&quot;elbow&quot;:&quot;vertical&quot;,&quot;curved&quot;:0,&quot;rounded&quot;:0}" parent="1" vertex="1">
          <mxGeometry x="1992.5" y="1599" width="10" height="30" as="geometry" />
        </mxCell>
        <mxCell id="UK-n1BO-FfAP6Dtml6JQ-62" value="opt" style="shape=umlFrame;pointerEvents=0;dropTarget=0;strokeColor=#000000;height=24;width=62;strokeWidth=1;" parent="1" vertex="1">
          <mxGeometry x="738" y="1475" width="1270" height="175" as="geometry" />
        </mxCell>
        <mxCell id="UK-n1BO-FfAP6Dtml6JQ-63" value="[histories is not empty]" style="text;strokeColor=none;fillColor=none;align=center;verticalAlign=middle;whiteSpace=wrap;" parent="UK-n1BO-FfAP6Dtml6JQ-62" vertex="1">
          <mxGeometry x="30" y="5.833333333333334" width="1240" height="23.333333333333336" as="geometry" />
        </mxCell>
        <mxCell id="UK-n1BO-FfAP6Dtml6JQ-104" value="" style="html=1;points=[[0,0,0,0,5],[0,1,0,0,-5],[1,0,0,0,5],[1,1,0,0,-5]];perimeter=orthogonalPerimeter;outlineConnect=0;targetShapes=umlLifeline;portConstraint=eastwest;newEdgeStyle={&quot;curved&quot;:0,&quot;rounded&quot;:0};" parent="1" vertex="1">
          <mxGeometry x="536" y="740" width="10" height="540" as="geometry" />
        </mxCell>
        <mxCell id="UK-n1BO-FfAP6Dtml6JQ-64" value="loop" style="shape=umlFrame;pointerEvents=0;dropTarget=0;strokeColor=#000000;height=23;width=66;strokeWidth=1;" parent="1" vertex="1">
          <mxGeometry x="440" y="857" width="400" height="179" as="geometry" />
        </mxCell>
        <mxCell id="UK-n1BO-FfAP6Dtml6JQ-65" value="[for each SENT history]" style="text;strokeColor=none;fillColor=none;align=center;verticalAlign=middle;whiteSpace=wrap;" parent="UK-n1BO-FfAP6Dtml6JQ-64" vertex="1">
          <mxGeometry x="56.33802816901408" width="343.6619718309859" height="20" as="geometry" />
        </mxCell>
        <mxCell id="UK-n1BO-FfAP6Dtml6JQ-106" value="" style="html=1;points=[[0,0,0,0,5],[0,1,0,0,-5],[1,0,0,0,5],[1,1,0,0,-5]];perimeter=orthogonalPerimeter;outlineConnect=0;targetShapes=umlLifeline;portConstraint=eastwest;newEdgeStyle={&quot;curved&quot;:0,&quot;rounded&quot;:0};" parent="1" vertex="1">
          <mxGeometry x="541" y="957" width="10" height="40" as="geometry" />
        </mxCell>
        <mxCell id="UK-n1BO-FfAP6Dtml6JQ-107" value="&lt;span style=&quot;&quot;&gt;1.12. add the history to the solvedHistories&lt;/span&gt;&lt;br style=&quot;padding: 0px; margin: 0px;&quot;&gt;&lt;span style=&quot;&quot;&gt;when the condition is met&lt;/span&gt;" style="html=1;align=left;spacingLeft=2;endArrow=block;rounded=0;edgeStyle=orthogonalEdgeStyle;curved=0;rounded=0;" parent="1" target="UK-n1BO-FfAP6Dtml6JQ-106" edge="1">
          <mxGeometry x="-0.0014" relative="1" as="geometry">
            <mxPoint x="546" y="917" as="sourcePoint" />
            <Array as="points">
              <mxPoint x="590" y="917" />
              <mxPoint x="590" y="957" />
            </Array>
            <mxPoint as="offset" />
          </mxGeometry>
        </mxCell>
        <mxCell id="UK-n1BO-FfAP6Dtml6JQ-66" value="opt" style="shape=umlFrame;pointerEvents=0;dropTarget=0;strokeColor=#000000;height=22;width=64;strokeWidth=1;" parent="1" vertex="1">
          <mxGeometry x="506" y="1120" width="1325" height="140" as="geometry" />
        </mxCell>
        <mxCell id="UK-n1BO-FfAP6Dtml6JQ-67" value="[solvedHistories is not empty]" style="text;strokeColor=none;fillColor=none;align=center;verticalAlign=middle;whiteSpace=wrap;" parent="UK-n1BO-FfAP6Dtml6JQ-66" vertex="1">
          <mxGeometry x="30" width="1295" height="19.17808219178082" as="geometry" />
        </mxCell>
        <mxCell id="UK-n1BO-FfAP6Dtml6JQ-109" value="" style="points=[];perimeter=orthogonalPerimeter;outlineConnect=0;targetShapes=umlLifeline;portConstraint=eastwest;newEdgeStyle={&quot;edgeStyle&quot;:&quot;elbowEdgeStyle&quot;,&quot;elbow&quot;:&quot;vertical&quot;,&quot;curved&quot;:0,&quot;rounded&quot;:0}" parent="1" vertex="1">
          <mxGeometry x="1579" y="1070" width="10" height="40" as="geometry" />
        </mxCell>
        <mxCell id="UK-n1BO-FfAP6Dtml6JQ-111" value="&lt;span style=&quot;text-wrap: nowrap;&quot;&gt;&amp;nbsp; &amp;nbsp;Fire an empty&amp;nbsp; &amp;nbsp; &amp;nbsp;&lt;/span&gt;&lt;div&gt;&lt;div style=&quot;&quot;&gt;&lt;span style=&quot;text-wrap: nowrap; background-color: initial;&quot;&gt;&amp;nbsp; &amp;nbsp;event&lt;/span&gt;&lt;span style=&quot;text-wrap: nowrap; background-color: initial;&quot;&gt;&amp;nbsp;when has&amp;nbsp; &amp;nbsp; &amp;nbsp;&lt;/span&gt;&lt;/div&gt;&lt;div&gt;&lt;span style=&quot;text-wrap: nowrap;&quot;&gt;&amp;nbsp; &amp;nbsp;solved alarm&amp;nbsp; &amp;nbsp; &amp;nbsp;&amp;nbsp;&lt;/span&gt;&lt;/div&gt;&lt;/div&gt;" style="shape=note;whiteSpace=wrap;html=1;backgroundOutline=1;darkOpacity=0.05;verticalAlign=middle;align=left;size=23;" parent="1" vertex="1">
          <mxGeometry x="1250" y="1189" width="121" height="61" as="geometry" />
        </mxCell>
        <mxCell id="6E0PhpQqolpPUcURHU3V-1" value="" style="endArrow=none;dashed=1;html=1;dashPattern=1 3;strokeWidth=2;rounded=0;entryX=0;entryY=0.5;entryDx=0;entryDy=0;entryPerimeter=0;" parent="1" target="UK-n1BO-FfAP6Dtml6JQ-111" edge="1">
          <mxGeometry width="50" height="50" relative="1" as="geometry">
            <mxPoint x="1220" y="1180" as="sourcePoint" />
            <mxPoint x="1370" y="1100" as="targetPoint" />
          </mxGeometry>
        </mxCell>
        <mxCell id="NHxKdkSoU37RBg6EtHO--1" value="&lt;span style=&quot;text-wrap: nowrap;&quot;&gt;Start triggering alarms&amp;nbsp; &amp;nbsp; &amp;nbsp;&amp;nbsp;&lt;/span&gt;" style="shape=note;whiteSpace=wrap;html=1;backgroundOutline=1;darkOpacity=0.05;verticalAlign=middle;align=center;size=23;" parent="1" vertex="1">
          <mxGeometry x="110" y="278" width="160" height="50" as="geometry" />
        </mxCell>
        <mxCell id="NHxKdkSoU37RBg6EtHO--4" value="" style="endArrow=none;dashed=1;html=1;dashPattern=1 3;strokeWidth=2;rounded=0;entryX=0.5;entryY=0;entryDx=0;entryDy=0;entryPerimeter=0;" parent="1" target="NHxKdkSoU37RBg6EtHO--1" edge="1">
          <mxGeometry width="50" height="50" relative="1" as="geometry">
            <mxPoint x="190" y="240" as="sourcePoint" />
            <mxPoint x="1260" y="1230" as="targetPoint" />
          </mxGeometry>
        </mxCell>
        <mxCell id="NHxKdkSoU37RBg6EtHO--5" value="&lt;span style=&quot;text-wrap: nowrap;&quot;&gt;Start resolving alarms&amp;nbsp; &amp;nbsp; &amp;nbsp;&amp;nbsp;&lt;/span&gt;" style="shape=note;whiteSpace=wrap;html=1;backgroundOutline=1;darkOpacity=0.05;verticalAlign=middle;align=center;size=23;" parent="1" vertex="1">
          <mxGeometry x="199" y="791" width="160" height="50" as="geometry" />
        </mxCell>
        <mxCell id="NHxKdkSoU37RBg6EtHO--6" value="" style="endArrow=none;dashed=1;html=1;dashPattern=1 3;strokeWidth=2;rounded=0;" parent="1" target="NHxKdkSoU37RBg6EtHO--5" edge="1">
          <mxGeometry width="50" height="50" relative="1" as="geometry">
            <mxPoint x="279" y="740" as="sourcePoint" />
            <mxPoint x="259" y="718" as="targetPoint" />
          </mxGeometry>
        </mxCell>
        <mxCell id="PT7jLPXANrUlr4Vnk7FU-1" value="loop" style="shape=umlFrame;pointerEvents=0;dropTarget=0;strokeColor=#000000;height=23;width=66;strokeWidth=1;" parent="1" vertex="1">
          <mxGeometry x="20" y="130" width="2040" height="1590" as="geometry" />
        </mxCell>
        <mxCell id="PT7jLPXANrUlr4Vnk7FU-2" value="[for every second]" style="text;strokeColor=none;fillColor=none;align=center;verticalAlign=middle;whiteSpace=wrap;" parent="PT7jLPXANrUlr4Vnk7FU-1" vertex="1">
          <mxGeometry x="287.328472906404" width="1752.671527093596" height="30" as="geometry" />
        </mxCell>
      </root>
    </mxGraphModel>
  </diagram>
</mxfile>
